<svg version="1.2" xmlns="http://www.w3.org/2000/svg" viewBox="0 0 324 97" width="324" height="97">
	<title>New Project</title>
	<style>
		.s0 { fill: #359381 } 
	</style>
	<path id="EnviroX" class="s0" aria-label="EnviroX"  d="m52.3 67v-37.4h26v7.3h-16.4v7h15.4v7.3h-15.4v8.5h16.9v7.3zm62.9-17.1v17.1h-9.1v-2.8-10.3q0-3.6-0.1-5-0.2-1.4-0.6-2-0.5-0.9-1.4-1.4-0.9-0.5-2.1-0.5-2.8 0-4.4 2.2-1.6 2.2-1.6 6v13.8h-8.9v-28h8.9v4.1q2.1-2.5 4.3-3.6 2.3-1.2 5.1-1.2 4.8 0 7.3 3 2.6 2.9 2.6 8.6zm15.8 17.1l-11.1-28h9l7 19.3 6.9-19.3h9l-11 28zm25.9 0v-28h9v28zm0-31.6v-7.4h9v7.4zm38.3 3.1l0.1 8.1q-1.2-0.6-2.4-0.8-1.1-0.3-2.3-0.3-3.5 0-5.4 2.2-1.8 2.2-1.8 6.4v12.9h-9v-28h9v4.6q1.7-2.8 4-4 2.2-1.3 5.3-1.3 0.5 0 1 0 0.5 0.1 1.5 0.2zm17.9 6.2q-3 0-4.6 2.1-1.5 2.2-1.5 6.2 0 4 1.5 6.2 1.6 2.1 4.6 2.1 2.9 0 4.4-2.1 1.6-2.2 1.6-6.2 0-4-1.6-6.2-1.5-2.1-4.4-2.1zm0-6.4q7.2 0 11.3 3.9 4 3.9 4 10.8 0 6.9-4 10.8-4.1 3.9-11.3 3.9-7.3 0-11.4-3.9-4.1-3.9-4.1-10.8 0-6.9 4.1-10.8 4.1-3.9 11.4-3.9zm55.5-8.7l-12.4 18.3 12.9 19.1h-10l-8.7-12.8-8.7 12.8h-10.1l13-19.1-12.5-18.3h10.1l8.2 12.1 8.1-12.1z"/>
</svg>